# xmcd
#
# Track frame offsets:
#	150
#	17700
#	28912
#	47692
#	62150
#	73872
#	88267
#	104360
#	118480
#	131487
#
# Disc length: 1951
#
# Revision: 1
# Processed by: cddbd v1.5.1PL0 Copyright (c) Steve Scherf et al.
# Submitted via: EasyCDDAExtractor 5.0.5.1
# Normalized: r0:DSETVAR1
#
DISCID=95079d0a
DTITLE=Various Artist - Wrangler Cowboy Christmas Volume VIII
DYEAR=2000
DGENRE=Country
TTITLE0=Mark Wills - New Star Shining
TTITLE1=Chely Wright - Let It Snow! Let It Snow! Let It Snow!
TTITLE2=Vince Gill - Til the Season Comes Around Again
TTITLE3=Kathy Mattea - Mary, Did You Know
TTITLE4=Sammy Kershaw - Rudolph the Red-nosed Reindeer
TTITLE5=Mark Chesnutt - Light of the World
TTITLE6=Alecia Elliot - What Child Is This?
TTITLE7=Tracy Byrd - No Room
TTITLE8=Reba McEntire - Silent Night
TTITLE9=George Strait - Christmas Cookies
EXTD=
EXTT0=
EXTT1=
EXTT2=
EXTT3=
EXTT4=
EXTT5=
EXTT6=
EXTT7=
EXTT8=
EXTT9=
PLAYORDER=
